# xmcd
#
# Track frame offsets:
#	150
#	13187
#	25403
#	38679
#	53428
#	64782
#	76032
#	88779
#	98052
#	109662
#	119368
#	133568
#	145247
#	156418
#	168951
#	183522
#	193820
#	205548
#	218297
#	230734
#	241747
#	252513
#	264313
#	276131
#	287240
#	297753
#	313413
#	326254
#	339430
#
# Disc length: 4702 seconds
#
# Revision: 1
# Processed by: cddbd v1.5.2PL0 Copyright (c) Steve Scherf et al.
# Submitted via: audiograbber 1.83.01
#
DISCID=9c125c1d
DTITLE=Porter Wagoner - The Rubber Room
DYEAR=1997
DGENRE=Country
TTITLE0=Out Of The Silence (Came A Song)
TTITLE1=The Rubber Room
TTITLE2=George Leroy Chickshea
TTITLE3=Cassie
TTITLE4=Fairchild
TTITLE5=Indian Creek
TTITLE6=Lonely Coming Down
TTITLE7=Bones
TTITLE8=Jim Johnson
TTITLE9=Lonelyville
TTITLE10=My Many Hurried Southern Trips
TTITLE11=As Simple As I Am
TTITLE12=Woman Hungry
TTITLE13=The First Mrs. Jones
TTITLE14=The Cold Hard Facts Of Life
TTITLE15=Shopworn
TTITLE16=Julie
TTITLE17=The Carroll County Accident
TTITLE18=Let Me In
TTITLE19=Wino
TTITLE20=The Bottom Of The Bottle
TTITLE21=Nothing Between
TTITLE22=Crumbs From Another Man's Table
TTITLE23=He's Alone Again Tonight
TTITLE24=Life Rides The Train
TTITLE25=Little Boy's Prayer
TTITLE26=My Last Two Tens
TTITLE27=The Party
TTITLE28=Moments Of Meditation
EXTD=
EXTT0=
EXTT1=
EXTT2=
EXTT3=
EXTT4=
EXTT5=
EXTT6=
EXTT7=
EXTT8=
EXTT9=
EXTT10=
EXTT11=
EXTT12=
EXTT13=
EXTT14=
EXTT15=
EXTT16=
EXTT17=
EXTT18=
EXTT19=
EXTT20=
EXTT21=
EXTT22=
EXTT23=
EXTT24=
EXTT25=
EXTT26=
EXTT27=
EXTT28=
PLAYORDER=
